#!OML:ASF E:\acrobat2\Project_11_07_03\Capture day 1\Session 1\Acrobat.ASF
:FULLY-SPECIFIED
:DEGREES
326
root 13.0312 16.5742 7.17846 8.16884 -2.62897 3.19287
lowerback 21.2217 -0.743203 0.689715
upperback 8.19675 -0.933433 -1.97712
thorax -2.99553 -0.421651 -2.28682
lowerneck -3.42092 -0.809274 0.871693
upperneck -16.5606 -0.837933 2.09877
head -4.90424 -0.578681 0.591762
rclavicle 9.93923e-015 2.45499e-014
rhumerus 23.9044 -2.16917 -92.0354
rradius 32.4738
rwrist -30.6322
rhand -12.4797 -41.3949
rfingers 7.12502
rthumb 13.5947 -70.9311
lclavicle 9.93923e-015 2.45499e-014
lhumerus 22.9312 -25.1246 73.886
lradius 23.6997
lwrist 22.9098
lhand -20.6568 -18.8244
lfingers 7.12502
lthumb 5.70571 11.0787
rfemur -56.4481 -5.17544 9.78463
rtibia 87.7171
rfoot -31.5632 -0.133728
rtoes 9.10107
lfemur -63.1909 -1.86057 -14.6528
ltibia 88.1139
lfoot -25.5555 -11.0957
ltoes 9.32905
327
root 13.0574 16.6238 7.15484 7.2487 -3.27077 3.0655
lowerback 20.9458 -0.782528 0.638762
upperback 8.00922 -1.00459 -2.05979
thorax -3.06214 -0.46034 -2.32983
lowerneck -3.70021 -0.714885 0.791931
upperneck -16.6071 -0.659223 2.52675
head -4.86811 -0.505726 0.74532
rclavicle -4.47266e-015 5.96354e-015
rhumerus 29.9745 0.579697 -90.9645
rradius 34.7441
rwrist -33.5816
rhand -12.7376 -40.6161
rfingers 7.12502
rthumb 13.3461 -70.1686
lclavicle -4.47266e-015 5.96354e-015
lhumerus 30.2302 -24.7118 71.7251
lradius 26.0042
lwrist 24.4797
lhand -20.836 -20.2524
lfingers 7.12502
lthumb 5.53271 9.65537
rfemur -55.2378 -5.04028 9.75704
rtibia 86.7722
rfoot -30.5826 0.616755
rtoes 9.89383
lfemur -61.7608 -1.77624 -14.6459
ltibia 87.5296
lfoot -25.3216 -10.4705
ltoes 9.73202
328
root 13.0823 16.6801 7.13858 6.54317 -3.88288 2.92792
lowerback 20.5737 -0.841728 0.556957
upperback 7.77432 -1.10496 -2.101
thorax -3.13028 -0.514574 -2.30471
lowerneck -3.81794 -0.633437 0.713965
upperneck -16.9714 -0.498814 2.88202
head -4.98586 -0.44339 0.880198
rclavicle -3.67752e-015 1.19271e-015
rhumerus 36.0467 2.87472 -89.2402
rradius 37.0288
rwrist -36.5803
rhand -13.0015 -40.1777
rfingers 7.12502
rthumb 13.0918 -69.7468
lclavicle -3.67752e-015 1.19271e-015
lhumerus 37.245 -23.9764 69.4786
lradius 28.4999
lwrist 25.8246
lhand -20.9608 -21.6299
lfingers 7.12502
lthumb 5.41218 8.28094
rfemur -54.1701 -4.95357 9.78823
rtibia 85.7208
rfoot -29.5653 1.32157
rtoes 10.7832
lfemur -60.5103 -1.65011 -14.6216
ltibia 86.8598
lfoot -24.9412 -9.8747
ltoes 10.2887
329
root 13.1078 16.7513 7.13838 5.97512 -4.65786 2.73552
lowerback 20.0933 -0.856929 0.472271
upperback 7.53158 -1.14717 -2.11254
thorax -3.14684 -0.540449 -2.26056
lowerneck -3.65925 -0.560568 0.563484
upperneck -18.0778 -0.316665 3.28435
head -4.8232 -0.390508 0.937817
rclavicle -2.78299e-015 -1.23246e-014
rhumerus 42.108 4.56761 -86.9528
rradius 39.2807
rwrist -39.7073
rhand -13.2946 -39.7468
rfingers 7.12502
rthumb 12.8092 -69.3338
lclavicle -2.78299e-015 -1.23246e-014
lhumerus 43.879 -22.879 67.2285
lradius 31.1094
lwrist 26.7865
lhand -21.0612 -23.0301
lfingers 7.12502
lthumb 5.3153 6.88321
rfemur -53.1242 -4.7209 9.90591
rtibia 84.5
rfoot -28.5198 1.90138
rtoes 11.3937
lfemur -59.2309 -1.33328 -14.5608
ltibia 86.065
lfoot -24.4898 -9.27736
ltoes 10.9001
330
root 13.1315 16.8375 7.14938 5.57661 -5.42557 2.52848
lowerback 19.5343 -0.887908 0.420219
upperback 7.24587 -1.20246 -2.1159
thorax -3.16798 -0.572369 -2.22421
lowerneck -3.53037 -0.521546 0.399063
upperneck -18.8249 -0.200889 3.60623
head -5.07625 -0.354973 1.06795
rclavicle -5.1684e-015 -1.59028e-015
rhumerus 48.0668 5.50085 -84.2926
rradius 41.4746
rwrist -42.8664
rhand -13.6545 -39.2254
rfingers 7.12502
rthumb 12.4622 -68.8339
lclavicle -5.1684e-015 -1.59028e-015
lhumerus 50.0545 -21.53 64.9102
lradius 33.7926
lwrist 27.3991
lhand -21.1925 -24.3198
lfingers 7.12502
lthumb 5.18845 5.5967
rfemur -52.1202 -4.512 10.0849
rtibia 83.1137
rfoot -27.4212 2.39827
rtoes 11.9458
lfemur -58.0159 -0.988257 -14.4802
ltibia 85.1254
lfoot -23.9231 -8.62549
ltoes 11.4361
331
root 13.1535 16.9425 7.17437 5.29905 -6.21997 2.35493
lowerback 18.9054 -0.909194 0.349377
upperback 6.92813 -1.24754 -2.119
thorax -3.1839 -0.599256 -2.18015
lowerneck -3.23828 -0.541384 0.17765
upperneck -19.6893 -0.153391 3.96556
head -5.3934 -0.356277 1.22441
rclavicle 3.97569e-015 1.64991e-014
rhumerus 53.8697 5.615 -81.4055
rradius 43.5026
rwrist -45.9069
rhand -14.1622 -38.6781
rfingers 7.12502
rthumb 11.9727 -68.3157
lclavicle 3.97569e-015 1.64991e-014
lhumerus 55.7555 -19.9545 62.5517
lradius 36.376
lwrist 27.7612
lhand -21.4032 -25.7854
lfingers 7.12502
lthumb 4.98505 4.13595
rfemur -51.0837 -4.31645 10.262
rtibia 81.5295
rfoot -26.2554 2.82341
rtoes 12.4096
lfemur -56.7662 -0.614682 -14.4434
ltibia 84.0018
lfoot -23.2849 -7.9025
ltoes 11.8504
332
root 13.1734 17.0676 7.21426 5.1227 -7.05293 2.22195
lowerback 18.2223 -0.919189 0.24654
upperback 6.5731 -1.28258 -2.12788
thorax -3.2073 -0.62122 -2.1271
lowerneck -2.81178 -0.626321 -0.0847832
upperneck -20.599 -0.182009 4.38523
head -5.74773 -0.399661 1.41303
rclavicle -1.59028e-014 2.38542e-015
rhumerus 59.3912 4.94049 -78.5062
rradius 45.3416
rwrist -48.6317
rhand -14.7993 -37.9318
rfingers 7.12502
rthumb 11.3583 -67.6042
lclavicle -1.59028e-014 2.38542e-015
lhumerus 61.009 -18.1894 60.0152
lradius 38.6084
lwrist 27.8675
lhand -21.6131 -27.3565
lfingers 7.12502
lthumb 4.78238 2.56954
rfemur -49.9847 -4.13487 10.4292
rtibia 79.7312
rfoot -25.0072 3.18472
rtoes 12.7888
lfemur -55.4395 -0.201806 -14.4603
ltibia 82.6685
lfoot -22.5802 -7.1447
ltoes 12.267
333
root 13.1906 17.216 7.27062 5.02308 -7.94293 2.11178
lowerback 17.4996 -0.919518 0.0886407
upperback 6.17428 -1.31215 -2.1239
thorax -3.25132 -0.640721 -2.03104
lowerneck -2.28727 -0.756703 -0.389082
upperneck -21.4804 -0.262475 4.86927
head -6.1104 -0.472183 1.63527
rclavicle -1.78906e-015 2.8625e-014
rhumerus 64.6467 3.58641 -75.6777
rradius 46.8595
rwrist -50.9392
rhand -15.5318 -37.354
rfingers 7.12502
rthumb 10.6518 -67.064
lclavicle -1.78906e-015 2.8625e-014
lhumerus 65.7917 -16.2071 57.1968
lradius 40.2963
lwrist 27.768
lhand -21.6104 -28.7692
lfingers 7.12502
lthumb 4.78499 1.15678
rfemur -48.79 -3.93879 10.5966
rtibia 77.6812
rfoot -23.6421 3.53951
rtoes 13.3799
lfemur -53.9739 0.275218 -14.5121
ltibia 81.083
lfoot -21.8074 -6.37774
ltoes 12.789
334
root 13.2042 17.3907 7.3456 4.96294 -8.89271 2.01441
lowerback 16.7496 -0.913068 -0.140359
upperback 5.72788 -1.34073 -2.08785
thorax -3.32499 -0.659719 -1.86171
lowerneck -1.72621 -0.915411 -0.68476
upperneck -22.2209 -0.389983 5.33306
head -6.43518 -0.566932 1.85458
rclavicle -1.45113e-014 8.74653e-015
rhumerus 69.4846 1.70603 -73.0869
rradius 48.1325
rwrist -52.7909
rhand -16.2597 -36.7992
rfingers 7.12502
rthumb 9.94961 -66.5441
lclavicle -1.45113e-014 8.74653e-015
lhumerus 70.07 -14.0208 54.0451
lradius 41.172
lwrist 27.2455
lhand -21.4101 -29.6596
lfingers 7.12502
lthumb 4.97837 0.2619
rfemur -47.4246 -3.72569 10.7714
rtibia 75.3284
rfoot -22.1433 3.87799
rtoes 14.1663
lfemur -52.3013 0.819339 -14.5881
ltibia 79.2014
lfoot -20.9668 -5.59813
ltoes 13.3795
335
root 13.2142 17.5961 7.4414 4.83712 -9.88149 1.89504
lowerback 16.051 -0.91587 -0.398598
upperback 5.26309 -1.38144 -2.00217
thorax -3.43951 -0.683785 -1.6216
lowerneck -1.20848 -1.08186 -0.938082
upperneck -22.7136 -0.551675 5.71548
head -6.67339 -0.672371 2.04185
rclavicle 1.15295e-014 5.56597e-015
rhumerus 73.8565 -0.544692 -70.74
rradius 49.2139
rwrist -54.3157
rhand -16.9561 -36.5578
rfingers 7.12502
rthumb 9.27775 -66.3336
lclavicle 1.15295e-014 5.56597e-015
lhumerus 73.8344 -11.6608 50.4199
lradius 41.0879
lwrist 26.1857
lhand -20.9639 -29.5991
lfingers 7.12502
lthumb 5.40924 0.31182
rfemur -45.7151 -3.4998 10.9814
rtibia 72.6282
rfoot -20.5091 4.19661
rtoes 15.1598
lfemur -50.2689 1.40025 -14.6481
ltibia 76.9888
lfoot -20.0753 -4.80717
ltoes 13.9464
336
root 13.2208 17.834 7.55986 4.50522 -10.8878 1.71862
lowerback 15.5103 -0.941043 -0.620347
upperback 4.82441 -1.44259 -1.86146
thorax -3.60665 -0.716352 -1.33999
lowerneck -0.790324 -1.24012 -1.14511
upperneck -22.8453 -0.732997 6.00051
head -6.77739 -0.776909 2.18567
rclavicle -2.24627e-014 -7.55382e-015
rhumerus 77.7607 -2.98983 -68.7028
rradius 50.1308
rwrist -55.6086
rhand -17.5339 -36.4022
rfingers 7.12502
rthumb 8.72012 -66.2021
lclavicle -2.24627e-014 -7.55382e-015
lhumerus 77.0155 -9.19475 46.1853
lradius 40.0773
lwrist 24.5151
lhand -20.2127 -28.464
lfingers 7.12502
lthumb 6.13442 1.42722
rfemur -43.4304 -3.27647 11.2592
rtibia 69.4962
rfoot -18.7306 4.47698
rtoes 16.1742
lfemur -47.6878 1.98119 -14.6462
ltibia 74.3938
lfoot -19.13 -3.99007
ltoes 14.3388
337
root 13.2246 18.0879 7.70065 3.95349 -11.9035 1.4617
lowerback 15.0922 -1.00129 -0.745812
upperback 4.44836 -1.53157 -1.65477
thorax -3.77165 -0.761299 -1.03844
lowerneck -0.545254 -1.38899 -1.32764
upperneck -22.5714 -0.939 6.16847
head -6.71898 -0.877457 2.2796
rclavicle 2.78299e-014 8.34896e-015
rhumerus 81.2677 -5.48747 -66.9507
rradius 50.9198
rwrist -56.8466
rhand -17.9887 -36.3767
rfingers 7.12502
rthumb 8.28125 -66.1944
lclavicle 2.78299e-014 8.34896e-015
lhumerus 79.5041 -6.65522 41.2856
lradius 38.3151
lwrist 22.1791
lhand -19.0153 -26.3866
lfingers 7.12502
lthumb 7.29039 3.4678
rfemur -40.6416 -3.07257 11.6014
rtibia 66.0123
rfoot -16.7687 4.77936
rtoes 17.447
lfemur -44.6308 2.55075 -14.5402
ltibia 71.5017
lfoot -18.1198 -3.13058
ltoes 14.4659
